<svg xmlns="http://www.w3.org/2000/svg" xmlns:xlink="http://www.w3.org/1999/xlink" width="500" zoomAndPan="magnify" viewBox="0 0 375 374.999991" height="500" preserveAspectRatio="xMidYMid meet" version="1.0"><defs><clipPath id="id1"><path d="M 68.839844 68.839844 L 305.839844 68.839844 L 305.839844 305.839844 L 68.839844 305.839844 Z M 68.839844 68.839844 " clip-rule="nonzero"/></clipPath></defs><rect x="-37.5" width="450" fill="#ffffff" y="-37.499999" height="449.999989" fill-opacity="1"/><rect x="-37.5" width="450" fill="#ffffff" y="-37.499999" height="449.999989" fill-opacity="1"/><rect x="-37.5" width="450" fill="#ffffff" y="-37.499999" height="449.999989" fill-opacity="1"/><rect x="-37.5" width="450" fill="#ffffff" y="-37.499999" height="449.999989" fill-opacity="1"/><g clip-path="url(#id1)"><path fill="#1a4789" d="M 305.839844 269.800781 C 305.839844 289.691406 289.71875 305.8125 269.828125 305.8125 L 104.863281 305.8125 C 84.972656 305.8125 68.851562 289.691406 68.851562 269.800781 L 68.851562 104.832031 C 68.851562 84.945312 84.972656 68.820312 104.863281 68.820312 L 269.828125 68.820312 C 289.71875 68.820312 305.839844 84.945312 305.839844 104.832031 Z M 305.839844 269.800781 " fill-opacity="1" fill-rule="nonzero"/></g><path fill="#ffffff" d="M 225.878906 205.730469 L 229.714844 176.015625 L 200.285156 176.015625 L 200.285156 157.042969 C 200.285156 148.441406 202.6875 142.578125 215.019531 142.578125 L 230.746094 142.570312 L 230.746094 115.992188 C 228.03125 115.628906 218.695312 114.820312 207.820312 114.820312 C 185.132812 114.820312 169.609375 128.671875 169.609375 154.105469 L 169.609375 176.015625 L 143.945312 176.015625 L 143.945312 205.730469 L 169.609375 205.730469 L 169.609375 281.976562 L 200.285156 281.976562 L 200.285156 205.730469 Z M 225.878906 205.730469 " fill-opacity="1" fill-rule="nonzero"/></svg>
