<svg xmlns="http://www.w3.org/2000/svg" xmlns:xlink="http://www.w3.org/1999/xlink" width="500" zoomAndPan="magnify" viewBox="0 0 375 374.999991" height="500" preserveAspectRatio="xMidYMid meet" version="1.0"><defs><clipPath id="id1"><path d="M 48.132812 48.132812 L 327.132812 48.132812 L 327.132812 327.132812 L 48.132812 327.132812 Z M 48.132812 48.132812 " clip-rule="nonzero"/></clipPath></defs><rect x="-37.5" width="450" fill="#ffffff" y="-37.499999" height="449.999989" fill-opacity="1"/><rect x="-37.5" width="450" fill="#ffffff" y="-37.499999" height="449.999989" fill-opacity="1"/><rect x="-37.5" width="450" fill="#ffffff" y="-37.499999" height="449.999989" fill-opacity="1"/><g clip-path="url(#id1)"><path fill="#ffffff" d="M 89.984375 48.132812 L 285.28125 48.132812 C 286.652344 48.132812 288.019531 48.199219 289.382812 48.335938 C 290.75 48.46875 292.101562 48.667969 293.445312 48.9375 C 294.792969 49.203125 296.121094 49.535156 297.429688 49.933594 C 298.742188 50.332031 300.03125 50.792969 301.296875 51.316406 C 302.5625 51.84375 303.800781 52.429688 305.011719 53.074219 C 306.21875 53.71875 307.394531 54.425781 308.53125 55.1875 C 309.671875 55.945312 310.773438 56.761719 311.832031 57.632812 C 312.890625 58.5 313.90625 59.421875 314.875 60.390625 C 315.84375 61.359375 316.761719 62.375 317.632812 63.433594 C 318.503906 64.492188 319.316406 65.59375 320.078125 66.730469 C 320.839844 67.871094 321.542969 69.046875 322.191406 70.253906 C 322.835938 71.464844 323.421875 72.699219 323.945312 73.96875 C 324.472656 75.234375 324.933594 76.523438 325.332031 77.835938 C 325.726562 79.144531 326.0625 80.472656 326.328125 81.816406 C 326.597656 83.164062 326.796875 84.515625 326.929688 85.878906 C 327.066406 87.246094 327.132812 88.613281 327.132812 89.984375 L 327.132812 285.28125 C 327.132812 286.652344 327.066406 288.019531 326.929688 289.382812 C 326.796875 290.75 326.597656 292.101562 326.328125 293.445312 C 326.0625 294.792969 325.726562 296.121094 325.332031 297.429688 C 324.933594 298.742188 324.472656 300.03125 323.945312 301.296875 C 323.421875 302.5625 322.835938 303.800781 322.191406 305.011719 C 321.542969 306.21875 320.839844 307.394531 320.078125 308.53125 C 319.316406 309.671875 318.503906 310.773438 317.632812 311.832031 C 316.761719 312.890625 315.84375 313.90625 314.875 314.875 C 313.90625 315.84375 312.890625 316.761719 311.832031 317.632812 C 310.773438 318.503906 309.671875 319.316406 308.53125 320.078125 C 307.394531 320.839844 306.21875 321.542969 305.011719 322.191406 C 303.800781 322.835938 302.5625 323.421875 301.296875 323.945312 C 300.03125 324.472656 298.742188 324.933594 297.429688 325.332031 C 296.121094 325.726562 294.792969 326.0625 293.445312 326.328125 C 292.101562 326.597656 290.75 326.796875 289.382812 326.929688 C 288.019531 327.066406 286.652344 327.132812 285.28125 327.132812 L 89.984375 327.132812 C 88.613281 327.132812 87.246094 327.066406 85.878906 326.929688 C 84.515625 326.796875 83.164062 326.597656 81.816406 326.328125 C 80.472656 326.0625 79.144531 325.726562 77.835938 325.332031 C 76.523438 324.933594 75.234375 324.472656 73.96875 323.945312 C 72.699219 323.421875 71.464844 322.835938 70.253906 322.191406 C 69.046875 321.542969 67.871094 320.839844 66.730469 320.078125 C 65.59375 319.316406 64.492188 318.503906 63.433594 317.632812 C 62.375 316.761719 61.359375 315.84375 60.390625 314.875 C 59.421875 313.90625 58.5 312.890625 57.632812 311.832031 C 56.761719 310.773438 55.945312 309.671875 55.1875 308.53125 C 54.425781 307.394531 53.71875 306.21875 53.074219 305.011719 C 52.429688 303.800781 51.84375 302.5625 51.316406 301.296875 C 50.792969 300.03125 50.332031 298.742188 49.933594 297.429688 C 49.535156 296.121094 49.203125 294.792969 48.9375 293.445312 C 48.667969 292.101562 48.46875 290.75 48.335938 289.382812 C 48.199219 288.019531 48.132812 286.652344 48.132812 285.28125 L 48.132812 89.984375 C 48.132812 88.613281 48.199219 87.246094 48.335938 85.878906 C 48.46875 84.515625 48.667969 83.164062 48.9375 81.816406 C 49.203125 80.472656 49.535156 79.144531 49.933594 77.835938 C 50.332031 76.523438 50.792969 75.234375 51.316406 73.96875 C 51.84375 72.699219 52.429688 71.464844 53.074219 70.253906 C 53.71875 69.046875 54.425781 67.871094 55.1875 66.730469 C 55.945312 65.59375 56.761719 64.492188 57.632812 63.433594 C 58.5 62.375 59.421875 61.359375 60.390625 60.390625 C 61.359375 59.421875 62.375 58.5 63.433594 57.632812 C 64.492188 56.761719 65.59375 55.945312 66.730469 55.1875 C 67.871094 54.425781 69.046875 53.71875 70.253906 53.074219 C 71.464844 52.429688 72.699219 51.84375 73.96875 51.316406 C 75.234375 50.792969 76.523438 50.332031 77.835938 49.933594 C 79.144531 49.535156 80.472656 49.203125 81.816406 48.9375 C 83.164062 48.667969 84.515625 48.46875 85.878906 48.335938 C 87.246094 48.199219 88.613281 48.132812 89.984375 48.132812 Z M 89.984375 48.132812 " fill-opacity="1" fill-rule="nonzero"/></g><path fill="#4285f4" d="M 258.472656 266.101562 C 282.992188 243.214844 293.890625 205.070312 287.351562 168.558594 L 189.8125 168.558594 L 189.8125 208.882812 L 245.394531 208.882812 C 243.214844 221.960938 235.585938 232.859375 224.6875 239.945312 Z M 258.472656 266.101562 " fill-opacity="1" fill-rule="nonzero"/><path fill="#34a853" d="M 97.175781 233.949219 C 98.066406 235.710938 99.007812 237.441406 100 239.144531 C 100.988281 240.851562 102.027344 242.527344 103.113281 244.171875 C 104.199219 245.816406 105.328125 247.433594 106.503906 249.015625 C 107.679688 250.597656 108.902344 252.144531 110.164062 253.65625 C 111.429688 255.171875 112.734375 256.648438 114.082031 258.085938 C 115.429688 259.527344 116.816406 260.925781 118.242188 262.289062 C 119.667969 263.648438 121.132812 264.96875 122.632812 266.246094 C 124.136719 267.523438 125.671875 268.761719 127.242188 269.953125 C 128.8125 271.144531 130.417969 272.289062 132.050781 273.390625 C 133.6875 274.492188 135.351562 275.542969 137.046875 276.550781 C 138.742188 277.558594 140.464844 278.515625 142.214844 279.425781 C 143.964844 280.335938 145.738281 281.195312 147.535156 282.003906 C 149.335938 282.8125 151.152344 283.570312 152.996094 284.277344 C 154.835938 284.980469 156.695312 285.636719 158.574219 286.238281 C 160.449219 286.835938 162.34375 287.386719 164.253906 287.878906 C 166.160156 288.375 168.082031 288.8125 170.015625 289.199219 C 171.949219 289.582031 173.894531 289.914062 175.84375 290.191406 C 177.796875 290.464844 179.753906 290.683594 181.71875 290.851562 C 183.683594 291.015625 185.652344 291.125 187.625 291.179688 C 189.59375 291.230469 191.566406 291.230469 193.535156 291.171875 C 195.507812 291.113281 197.476562 291 199.4375 290.832031 C 201.402344 290.664062 203.363281 290.4375 205.3125 290.15625 C 207.265625 289.878906 209.207031 289.542969 211.140625 289.152344 C 213.074219 288.765625 214.992188 288.320312 216.902344 287.824219 C 218.808594 287.324219 220.699219 286.773438 222.578125 286.167969 C 224.453125 285.5625 226.3125 284.90625 228.152344 284.195312 C 229.988281 283.484375 231.808594 282.722656 233.605469 281.910156 C 235.398438 281.097656 237.171875 280.234375 238.917969 279.320312 C 240.667969 278.410156 242.386719 277.445312 244.082031 276.4375 C 245.773438 275.425781 247.4375 274.367188 249.070312 273.265625 C 250.703125 272.160156 252.304688 271.011719 253.871094 269.816406 C 255.441406 268.621094 256.972656 267.382812 258.472656 266.101562 L 224.6875 239.945312 C 195.804688 259.015625 147.851562 251.933594 131.503906 207.25 Z M 97.175781 233.949219 " fill-opacity="1" fill-rule="nonzero"/><path fill="#fbbc02" d="M 131.503906 207.25 C 127.144531 193.625 127.144531 181.09375 131.503906 167.46875 L 97.175781 140.769531 C 84.640625 165.835938 80.828125 201.253906 97.175781 233.949219 Z M 131.503906 207.25 " fill-opacity="1" fill-rule="nonzero"/><path fill="#ea4335" d="M 131.503906 167.46875 C 143.492188 129.871094 194.714844 108.074219 229.046875 140.222656 L 259.015625 110.796875 C 216.511719 69.929688 133.683594 71.5625 97.175781 140.769531 Z M 131.503906 167.46875 " fill-opacity="1" fill-rule="nonzero"/></svg>